<?xml version="1.0" standalone="no"?>
<!DOCTYPE svg PUBLIC "-//W3C//DTD SVG 20010904//EN"
 "http://www.w3.org/TR/2001/REC-SVG-20010904/DTD/svg10.dtd">
<svg version="1.0" xmlns="http://www.w3.org/2000/svg"
 width="474.000000pt" height="474.000000pt" viewBox="0 0 474.000000 474.000000"
 preserveAspectRatio="xMidYMid meet">
<metadata>
Created by potrace 1.11, written by Peter Selinger 2001-2013
</metadata>
<g transform="translate(0.000000,474.000000) scale(0.100000,-0.100000)"
fill="#000000" stroke="none">
<path d="M756 4148 c8 -14 255 -381 469 -698 73 -107 270 -399 439 -649 l306
-454 0 -819 0 -818 235 0 235 0 0 825 0 826 417 617 c707 1046 793 1174 793
1178 0 2 -112 4 -248 4 l-248 0 -471 -702 c-259 -387 -475 -703 -479 -702 -5
0 -222 316 -483 702 l-473 702 -250 0 c-196 0 -248 -3 -242 -12z"/>
</g>
</svg>
